<?xml version="1.0" encoding="UTF-8" standalone="no"?>
<svg
   xmlns:dc="http://purl.org/dc/elements/1.1/"
   xmlns:cc="http://creativecommons.org/ns#"
   xmlns:rdf="http://www.w3.org/1999/02/22-rdf-syntax-ns#"
   xmlns:svg="http://www.w3.org/2000/svg"
   xmlns="http://www.w3.org/2000/svg"
   xmlns:sodipodi="http://sodipodi.sourceforge.net/DTD/sodipodi-0.dtd"
   xmlns:inkscape="http://www.inkscape.org/namespaces/inkscape"
   version="1.0"
   x="0px"
   y="0px"
   width="100px"
   height="71.937px"
   viewBox="0 0 100 71.937"
   overflow="visible"
   enable-background="new 0 0 100 71.937"
   xml:space="preserve"
   id="svg2"
   inkscape:version="0.48.3.1 r9886"
   sodipodi:docname="linegraph_stacked.svg"><metadata
   id="metadata10"><rdf:RDF><cc:Work
       rdf:about=""><dc:format>image/svg+xml</dc:format><dc:type
         rdf:resource="http://purl.org/dc/dcmitype/StillImage" /><dc:title></dc:title></cc:Work></rdf:RDF></metadata><defs
   id="defs8" /><sodipodi:namedview
   pagecolor="#f2f2f2"
   bordercolor="#666666"
   borderopacity="1"
   objecttolerance="10"
   gridtolerance="10"
   guidetolerance="10"
   inkscape:pageopacity="1"
   inkscape:pageshadow="2"
   inkscape:window-width="1908"
   inkscape:window-height="1024"
   id="namedview6"
   showgrid="false"
   inkscape:zoom="4.6395376"
   inkscape:cx="32.714711"
   inkscape:cy="56.804339"
   inkscape:window-x="1920"
   inkscape:window-y="25"
   inkscape:window-maximized="1"
   inkscape:current-layer="svg2" />
    <path
   d="m 0,0 0,3.71875 6.59375,0 0,9.34375 -6.59375,0 0,3.71875 6.59375,0 0,9.34375 -6.59375,0 0,3.71875 6.59375,0 0,9.34375 -6.59375,0 0,3.6875 6.59375,0 0,9.375 -6.59375,0 0,3.6875 6.59375,0 0,9.34375 11.0625,0 0,6.65625 3.71875,0 0,-6.65625 9.34375,0 0,6.65625 3.71875,0 0,-6.65625 9.34375,0 0,6.65625 3.71875,0 0,-6.65625 9.34375,0 0,6.65625 3.71875,0 0,-6.65625 9.34375,0 0,6.65625 3.6875,0 0,-6.65625 9.375,0 0,6.65625 3.6875,0 0,-6.65625 9.21875,0 0,6.65625 3.71875,0 0,-10.3125 0,-0.03125 -89.28125,0 L 10.3125,0 0,0 z m 91.9375,0.96875 c -4.336,-0.029 -7.87825,3.4725 -7.90625,7.8125 -0.01,0.61 0.0775,1.178 0.1875,1.75 l -13.375,11.875 C 68.28175,21.40125 65.269,21.777 63,23.625 L 50.1875,18.15625 c -0.053,-1.037 -0.29925,-2.0735 -0.78125,-3.0625 -1.912,-3.894 -6.607,-5.53 -10.5,-3.625 -3.899,1.912 -5.49375,6.63625 -3.59375,10.53125 0.151,0.326 0.33125,0.61325 0.53125,0.90625 L 27.5,38.46875 c -2.94,0.136 -5.69525,1.9135 -6.90625,4.8125 -1.685,4 0.22175,8.60525 4.21875,10.28125 4.012,1.673 8.60525,-0.21575 10.28125,-4.21875 1.021,-2.439 0.70125,-5.1005 -0.59375,-7.1875 L 42.96875,26.375 c 0.958,-0.075 1.92675,-0.33825 2.84375,-0.78125 0.256,-0.131 0.47175,-0.25825 0.71875,-0.40625 L 60.25,31.0625 c 0.246,1.351 0.802,2.636 1.75,3.75 2.847,3.288 7.79775,3.67875 11.09375,0.84375 2.099,-1.807 3.02325,-4.5085 2.65625,-7.0625 l 13.84375,-12.25 c 0.716,0.212 1.45975,0.33475 2.21875,0.34375 4.352,0.034 7.9015,-3.44225 7.9375,-7.78125 0.038,-4.334 -3.4775,-7.9055 -7.8125,-7.9375 z"
   id="path2987"
   style="fill:#4d4d4d;fill-opacity:1"
   inkscape:original="M 0 0 L 0 3.71875 L 6.59375 3.71875 L 6.59375 13.0625 L 0 13.0625 L 0 16.78125 L 6.59375 16.78125 L 6.59375 26.125 L 0 26.125 L 0 29.84375 L 6.59375 29.84375 L 6.59375 39.1875 L 0 39.1875 L 0 42.875 L 6.59375 42.875 L 6.59375 52.25 L 0 52.25 L 0 55.9375 L 6.59375 55.9375 L 6.59375 65.28125 L 17.65625 65.28125 L 17.65625 71.9375 L 21.375 71.9375 L 21.375 65.28125 L 30.71875 65.28125 L 30.71875 71.9375 L 34.4375 71.9375 L 34.4375 65.28125 L 43.78125 65.28125 L 43.78125 71.9375 L 47.5 71.9375 L 47.5 65.28125 L 56.84375 65.28125 L 56.84375 71.9375 L 60.5625 71.9375 L 60.5625 65.28125 L 69.90625 65.28125 L 69.90625 71.9375 L 73.59375 71.9375 L 73.59375 65.28125 L 82.96875 65.28125 L 82.96875 71.9375 L 86.65625 71.9375 L 86.65625 65.28125 L 95.875 65.28125 L 95.875 71.9375 L 99.59375 71.9375 L 99.59375 61.625 L 99.59375 61.59375 L 10.3125 61.59375 L 10.3125 0 L 0 0 z M 91.9375 0.96875 C 87.6015 0.93975 84.05925 4.44125 84.03125 8.78125 C 84.02125 9.39125 84.10875 9.95925 84.21875 10.53125 L 70.84375 22.40625 C 68.28175 21.40125 65.269 21.777 63 23.625 L 50.1875 18.15625 C 50.1345 17.11925 49.88825 16.08275 49.40625 15.09375 C 47.49425 11.19975 42.79925 9.56375 38.90625 11.46875 C 35.00725 13.38075 33.4125 18.105 35.3125 22 C 35.4635 22.326 35.64375 22.61325 35.84375 22.90625 L 27.5 38.46875 C 24.56 38.60475 21.80475 40.38225 20.59375 43.28125 C 18.90875 47.28125 20.8155 51.8865 24.8125 53.5625 C 28.8245 55.2355 33.41775 53.34675 35.09375 49.34375 C 36.11475 46.90475 35.795 44.24325 34.5 42.15625 L 42.96875 26.375 C 43.92675 26.3 44.8955 26.03675 45.8125 25.59375 C 46.0685 25.46275 46.28425 25.3355 46.53125 25.1875 L 60.25 31.0625 C 60.496 32.4135 61.052 33.6985 62 34.8125 C 64.847 38.1005 69.79775 38.49125 73.09375 35.65625 C 75.19275 33.84925 76.117 31.14775 75.75 28.59375 L 89.59375 16.34375 C 90.30975 16.55575 91.0535 16.6785 91.8125 16.6875 C 96.1645 16.7215 99.714 13.24525 99.75 8.90625 C 99.788 4.57225 96.2725 1.00075 91.9375 0.96875 z "
   inkscape:radius="0"
   sodipodi:type="inkscape:offset" />
<rect
   style="fill:#f2f2f2;fill-opacity:1;stroke:none"
   id="rect2989"
   width="89.51619"
   height="61.183678"
   x="10.27824"
   y="0.27037182"
   ry="0" /><path
   style="fill:none;stroke:#eaa228;stroke-width:5.00000048;stroke-linecap:round;stroke-linejoin:miter;stroke-miterlimit:4;stroke-opacity:1;stroke-dasharray:none"
   d="M 13.469581,46.675916 C 43.584522,7.3227118 42.362014,50.90703 96.60216,12.521247"
   id="path3771-6"
   inkscape:connector-curvature="0"
   sodipodi:nodetypes="cc" /><path
   style="fill:none;stroke:#d5383b;stroke-width:5.00000048;stroke-linecap:round;stroke-linejoin:miter;stroke-miterlimit:4;stroke-opacity:1;stroke-dasharray:none"
   d="M 13.432599,22.802102 C 58.808741,4.8418816 22.730507,48.459708 96.741498,2.5874131"
   id="path3771-6-3"
   inkscape:connector-curvature="0"
   sodipodi:nodetypes="cc" /><path
   style="font-size:medium;font-style:normal;font-variant:normal;font-weight:normal;font-stretch:normal;text-indent:0;text-align:start;text-decoration:none;line-height:normal;letter-spacing:normal;word-spacing:normal;text-transform:none;direction:ltr;block-progression:tb;writing-mode:lr-tb;text-anchor:start;baseline-shift:baseline;color:#000000;fill:#7fae00;fill-opacity:1;stroke:none;stroke-width:5.00000048;marker:none;visibility:visible;display:inline;overflow:visible;enable-background:accumulate;font-family:Sans;-inkscape-font-specification:Sans"
   d="M 96.90625,18.4375 C 96.097148,18.41489 95.28775,18.813545 94.8125,19.46875 85.133713,32.297546 80.692778,35.612497 72.202034,41.037427 66.945537,44.395922 62.850185,43.947704 57.875,43.03125 52.899815,42.114796 47.141387,40.472558 39.75,41.3125 c -7.391387,0.839942 -22.174286,3.712043 -28.732847,14.564849 0,1.531611 0.05032,3.249476 0.05032,4.906571 22.090385,0 17.055992,-0.176234 35.798613,-0.176234 23.958357,0 23.002135,0.201428 52.334291,0.201428 0,-1.140604 -0.148184,-41.062734 -0.155803,-41.975613 -0.01351,-1.618377 -1.226142,-0.35944 -2.138324,-0.396001 z"
   id="path3771"
   inkscape:connector-curvature="0"
   sodipodi:nodetypes="ccsssccccsc" /><path
   style="fill:#d5383b;fill-opacity:1;stroke:none"
   d="m 11.046359,23.009707 -0.05389,22.847104 11.531322,-12.716784 c 10.233396,-9.003608 22.376285,-5.791962 34.593965,-5.711776 10.632494,-1.402803 9.903341,-1.985893 14.764402,-3.556389 6.014257,-2.525793 11.60836,-5.801816 17.243098,-9.052627 L 99.093927,8.2453043 99.147812,2.6412976 60.027534,22.794168 45.694209,24.518478 30.606498,18.160086 z"
   id="path3839"
   inkscape:connector-curvature="0"
   transform="translate(-2.4605135e-6,0)"
   sodipodi:nodetypes="cccccccccccc" /><path
   style="fill:#eaa228;fill-opacity:1;stroke:none"
   d="m 10.992475,47.042274 0,9.052626 c 2.618252,-5.396603 9.446095,-6.599317 15.08771,-10.776936 8.701533,-4.265423 16.51439,-3.819661 25.864647,-3.448619 8.35059,1.864285 8.362541,3.013819 17.027559,1.185463 6.615511,-2.539207 10.823676,-7.286626 16.165404,-11.639091 6.227551,-3.637079 6.852723,-12.787894 13.883196,-12.653094 L 99.179377,8.1123149 63.691692,28.829252 37.07266,29.368099 25.110261,32.493411 z"
   id="path3841"
   inkscape:connector-curvature="0"
   transform="translate(-2.4605135e-6,0)"
   sodipodi:nodetypes="cccccccccccc" /></svg>