<?xml version="1.0" encoding="UTF-8" standalone="no"?>
<svg
   xmlns:dc="http://purl.org/dc/elements/1.1/"
   xmlns:cc="http://creativecommons.org/ns#"
   xmlns:rdf="http://www.w3.org/1999/02/22-rdf-syntax-ns#"
   xmlns:svg="http://www.w3.org/2000/svg"
   xmlns="http://www.w3.org/2000/svg"
   xmlns:sodipodi="http://sodipodi.sourceforge.net/DTD/sodipodi-0.dtd"
   xmlns:inkscape="http://www.inkscape.org/namespaces/inkscape"
   version="1.0"
   x="0px"
   y="0px"
   width="100px"
   height="71.937px"
   viewBox="0 0 100 71.937"
   overflow="visible"
   enable-background="new 0 0 100 71.937"
   xml:space="preserve"
   id="svg2"
   inkscape:version="0.48.3.1 r9886"
   sodipodi:docname="linegraph.svg"><metadata
   id="metadata10"><rdf:RDF><cc:Work
       rdf:about=""><dc:format>image/svg+xml</dc:format><dc:type
         rdf:resource="http://purl.org/dc/dcmitype/StillImage" /></cc:Work></rdf:RDF></metadata><defs
   id="defs8" /><sodipodi:namedview
   pagecolor="#ffffff"
   bordercolor="#666666"
   borderopacity="1"
   objecttolerance="10"
   gridtolerance="10"
   guidetolerance="10"
   inkscape:pageopacity="0"
   inkscape:pageshadow="2"
   inkscape:window-width="1908"
   inkscape:window-height="1016"
   id="namedview6"
   showgrid="false"
   inkscape:zoom="4.6395376"
   inkscape:cx="-8.6784835"
   inkscape:cy="69.552877"
   inkscape:window-x="1920"
   inkscape:window-y="33"
   inkscape:window-maximized="1"
   inkscape:current-layer="svg2" />
    <g
   id="g2987"
   style="fill:#4d4d4d;fill-opacity:1"><path
     sodipodi:type="inkscape:offset"
     inkscape:radius="0"
     inkscape:original="M 0 0 L 0 3.71875 L 6.59375 3.71875 L 6.59375 13.0625 L 0 13.0625 L 0 16.78125 L 6.59375 16.78125 L 6.59375 26.125 L 0 26.125 L 0 29.84375 L 6.59375 29.84375 L 6.59375 39.1875 L 0 39.1875 L 0 42.875 L 6.59375 42.875 L 6.59375 52.25 L 0 52.25 L 0 55.9375 L 6.59375 55.9375 L 6.59375 65.28125 L 17.65625 65.28125 L 17.65625 71.9375 L 21.375 71.9375 L 21.375 65.28125 L 30.71875 65.28125 L 30.71875 71.9375 L 34.4375 71.9375 L 34.4375 65.28125 L 43.78125 65.28125 L 43.78125 71.9375 L 47.5 71.9375 L 47.5 65.28125 L 56.84375 65.28125 L 56.84375 71.9375 L 60.5625 71.9375 L 60.5625 65.28125 L 69.90625 65.28125 L 69.90625 71.9375 L 73.59375 71.9375 L 73.59375 65.28125 L 82.96875 65.28125 L 82.96875 71.9375 L 86.65625 71.9375 L 86.65625 65.28125 L 95.875 65.28125 L 95.875 71.9375 L 99.59375 71.9375 L 99.59375 61.625 L 99.59375 61.59375 L 10.3125 61.59375 L 10.3125 0 L 0 0 z M 91.9375 0.96875 C 87.6015 0.93975 84.05925 4.44125 84.03125 8.78125 C 84.02125 9.39125 84.10875 9.95925 84.21875 10.53125 L 70.84375 22.40625 C 68.28175 21.40125 65.269 21.777 63 23.625 L 50.1875 18.15625 C 50.1345 17.11925 49.88825 16.08275 49.40625 15.09375 C 47.49425 11.19975 42.79925 9.56375 38.90625 11.46875 C 35.00725 13.38075 33.4125 18.105 35.3125 22 C 35.4635 22.326 35.64375 22.61325 35.84375 22.90625 L 27.5 38.46875 C 24.56 38.60475 21.80475 40.38225 20.59375 43.28125 C 18.90875 47.28125 20.8155 51.8865 24.8125 53.5625 C 28.8245 55.2355 33.41775 53.34675 35.09375 49.34375 C 36.11475 46.90475 35.795 44.24325 34.5 42.15625 L 42.96875 26.375 C 43.92675 26.3 44.8955 26.03675 45.8125 25.59375 C 46.0685 25.46275 46.28425 25.3355 46.53125 25.1875 L 60.25 31.0625 C 60.496 32.4135 61.052 33.6985 62 34.8125 C 64.847 38.1005 69.79775 38.49125 73.09375 35.65625 C 75.19275 33.84925 76.117 31.14775 75.75 28.59375 L 89.59375 16.34375 C 90.30975 16.55575 91.0535 16.6785 91.8125 16.6875 C 96.1645 16.7215 99.714 13.24525 99.75 8.90625 C 99.788 4.57225 96.2725 1.00075 91.9375 0.96875 z "
     style="fill:#4d4d4d;fill-opacity:1"
     id="path2987"
     d="m 0,0 0,3.71875 6.59375,0 0,9.34375 -6.59375,0 0,3.71875 6.59375,0 0,9.34375 -6.59375,0 0,3.71875 6.59375,0 0,9.34375 -6.59375,0 0,3.6875 6.59375,0 0,9.375 -6.59375,0 0,3.6875 6.59375,0 0,9.34375 11.0625,0 0,6.65625 3.71875,0 0,-6.65625 9.34375,0 0,6.65625 3.71875,0 0,-6.65625 9.34375,0 0,6.65625 3.71875,0 0,-6.65625 9.34375,0 0,6.65625 3.71875,0 0,-6.65625 9.34375,0 0,6.65625 3.6875,0 0,-6.65625 9.375,0 0,6.65625 3.6875,0 0,-6.65625 9.21875,0 0,6.65625 3.71875,0 0,-10.3125 0,-0.03125 -89.28125,0 L 10.3125,0 0,0 z m 91.9375,0.96875 c -4.336,-0.029 -7.87825,3.4725 -7.90625,7.8125 -0.01,0.61 0.0775,1.178 0.1875,1.75 l -13.375,11.875 C 68.28175,21.40125 65.269,21.777 63,23.625 L 50.1875,18.15625 c -0.053,-1.037 -0.29925,-2.0735 -0.78125,-3.0625 -1.912,-3.894 -6.607,-5.53 -10.5,-3.625 -3.899,1.912 -5.49375,6.63625 -3.59375,10.53125 0.151,0.326 0.33125,0.61325 0.53125,0.90625 L 27.5,38.46875 c -2.94,0.136 -5.69525,1.9135 -6.90625,4.8125 -1.685,4 0.22175,8.60525 4.21875,10.28125 4.012,1.673 8.60525,-0.21575 10.28125,-4.21875 1.021,-2.439 0.70125,-5.1005 -0.59375,-7.1875 L 42.96875,26.375 c 0.958,-0.075 1.92675,-0.33825 2.84375,-0.78125 0.256,-0.131 0.47175,-0.25825 0.71875,-0.40625 L 60.25,31.0625 c 0.246,1.351 0.802,2.636 1.75,3.75 2.847,3.288 7.79775,3.67875 11.09375,0.84375 2.099,-1.807 3.02325,-4.5085 2.65625,-7.0625 l 13.84375,-12.25 c 0.716,0.212 1.45975,0.33475 2.21875,0.34375 4.352,0.034 7.9015,-3.44225 7.9375,-7.78125 0.038,-4.334 -3.4775,-7.9055 -7.8125,-7.9375 z" /></g>
<rect
   style="fill:#7fae00;fill-opacity:1;stroke:#7fae00;stroke-opacity:1;opacity:1;stroke-width:0.20000459;stroke-miterlimit:4;stroke-dasharray:none"
   id="rect2989"
   width="7.7573428"
   height="17.996761"
   x="-50.253315"
   y="-20.541"
   transform="matrix(-0.876517,-0.48137091,0.47296027,-0.88108375,0,0)" /><path
   style="fill:#eaa228;fill-opacity:1;stroke:#eaa228;stroke-width:3.01549459;stroke-miterlimit:4;stroke-opacity:1;stroke-dasharray:none"
   d="m 50.526972,19.935821 c 3.659518,1.585965 7.319039,3.171928 10.978558,4.757891 -0.654917,1.501243 -1.309836,3.002486 -1.96475,4.503731 -3.659517,-1.585965 -7.319038,-3.171927 -10.978556,-4.757891 0.654916,-1.501242 1.309832,-3.002485 1.964748,-4.503731 z"
   id="rect3759"
   inkscape:connector-curvature="0" /><rect
   style="fill:#d5383b;fill-opacity:1;stroke:#d5383b;stroke-width:3.10000237;stroke-miterlimit:4;stroke-opacity:1;stroke-dasharray:none"
   id="rect3766"
   width="14.73971"
   height="4.7316432"
   x="39.202438"
   y="65.729034"
   transform="matrix(0.74370909,-0.66850339,0.66975747,0.74257991,0,0)" /></svg>