<?xml version="1.0" encoding="UTF-8" standalone="no"?>
<!-- Generator: Adobe Illustrator 14.0.0, SVG Export Plug-In . SVG Version: 6.00 Build 43363)  -->

<svg
   xmlns:dc="http://purl.org/dc/elements/1.1/"
   xmlns:cc="http://creativecommons.org/ns#"
   xmlns:rdf="http://www.w3.org/1999/02/22-rdf-syntax-ns#"
   xmlns:svg="http://www.w3.org/2000/svg"
   xmlns="http://www.w3.org/2000/svg"
   xmlns:sodipodi="http://sodipodi.sourceforge.net/DTD/sodipodi-0.dtd"
   xmlns:inkscape="http://www.inkscape.org/namespaces/inkscape"
   version="1.0"
   id="Layer_1"
   x="0px"
   y="0px"
   width="91.849px"
   height="100px"
   viewBox="0 0 91.849 100"
   enable-background="new 0 0 91.849 100"
   xml:space="preserve"
   inkscape:version="0.48.3.1 r9886"
   sodipodi:docname="off.svg"><metadata
   id="metadata11"><rdf:RDF><cc:Work
       rdf:about=""><dc:format>image/svg+xml</dc:format><dc:type
         rdf:resource="http://purl.org/dc/dcmitype/StillImage" /><dc:title></dc:title></cc:Work></rdf:RDF></metadata><defs
   id="defs9" /><sodipodi:namedview
   pagecolor="#ffffff"
   bordercolor="#666666"
   borderopacity="1"
   objecttolerance="10"
   gridtolerance="10"
   guidetolerance="10"
   inkscape:pageopacity="0"
   inkscape:pageshadow="2"
   inkscape:window-width="1908"
   inkscape:window-height="1016"
   id="namedview7"
   showgrid="false"
   inkscape:zoom="6.675088"
   inkscape:cx="41.432194"
   inkscape:cy="52.151448"
   inkscape:window-x="1920"
   inkscape:window-y="33"
   inkscape:window-maximized="1"
   inkscape:current-layer="Layer_1" />


<path
   style="fill:#7fae00;fill-opacity:1"
   d="m 24.933901,14.285508 c -3.51085,0.167584 -6.182814,2.861518 -8.762593,4.941312 C 7.4845928,26.793126 1.4437202,37.534213 0.44730312,49.096441 -1.0105782,62.893698 4.2369953,77.148857 14.181606,86.791027 23.934727,96.406319 38.210256,101.42862 51.847582,99.421013 57.760361,98.774318 63.426126,96.726 68.570413,93.774212 81.316812,86.677783 90.060962,73.007926 91.555966,58.546488 91.987495,52.355912 91.814746,46.022154 89.759408,40.099597 87.366981,32.652121 82.965506,25.88563 77.206598,20.608541 74.666174,18.275048 72.125099,15.626928 68.753457,14.56881 c -2.55286,-0.553191 -5.412926,0.0042 -7.247257,1.983113 -2.151263,1.886672 -2.678383,5.049468 -2.016056,7.708448 1.125766,3.659593 5.02417,5.21086 7.444379,7.835811 5.810329,5.536749 9.69151,13.45634 9.270432,21.594644 C 76.657608,64.085225 70.588458,74.145296 61.9608,79.655773 51.826456,86.155994 37.707915,85.707845 28.129283,78.285383 21.576029,73.346035 16.790085,65.744844 15.942056,57.506326 c -0.281535,-4.832527 -0.252227,-9.867974 1.678703,-14.389909 2.294537,-6.271713 7.10312,-11.111446 12.300573,-15.133592 3.169684,-2.276967 3.842232,-7.160331 1.574632,-10.291106 -1.355163,-2.176322 -4.027972,-3.483038 -6.562063,-3.406211 z"
   id="path3762"
   inkscape:connector-curvature="0" /><path
   style="fill:#7fae00;fill-opacity:1"
   d="m 45.878824,0.14468744 c -3.415629,-0.0597 -6.518833,2.67236556 -7.33635,5.88585686 -0.0044,15.4260647 -0.151333,30.8709787 -0.05779,46.2853197 1.329524,3.172856 4.501555,6.106807 8.168773,5.508907 3.357448,-0.129587 6.2624,-2.890831 7.091389,-6.031515 0.0054,-15.238812 0.149682,-30.495022 0.05903,-45.7229865 -1.111575,-2.9923511 -3.630441,-5.96925204 -7.084215,-5.91896206 -0.279268,-0.0155 -0.56208,-0.02032 -0.840837,-0.0066 z"
   id="path3764"
   inkscape:connector-curvature="0" /></svg>