<?xml version="1.0" encoding="UTF-8" standalone="no"?>
<!-- Created with Inkscape (http://www.inkscape.org/) -->

<svg
   xmlns:dc="http://purl.org/dc/elements/1.1/"
   xmlns:cc="http://creativecommons.org/ns#"
   xmlns:rdf="http://www.w3.org/1999/02/22-rdf-syntax-ns#"
   xmlns:svg="http://www.w3.org/2000/svg"
   xmlns="http://www.w3.org/2000/svg"
   xmlns:sodipodi="http://sodipodi.sourceforge.net/DTD/sodipodi-0.dtd"
   xmlns:inkscape="http://www.inkscape.org/namespaces/inkscape"
   width="94.963791"
   height="96.525421"
   id="svg2"
   version="1.1"
   inkscape:version="0.48.3.1 r9886"
   sodipodi:docname="logo.svg">
  <defs
     id="defs4" />
  <sodipodi:namedview
     id="base"
     pagecolor="#ffffff"
     bordercolor="#666666"
     borderopacity="1.0"
     inkscape:pageopacity="0.0"
     inkscape:pageshadow="2"
     inkscape:zoom="2.2170829"
     inkscape:cx="5.923432"
     inkscape:cy="-39.360437"
     inkscape:document-units="px"
     inkscape:current-layer="g3941"
     showgrid="false"
     inkscape:window-width="1908"
     inkscape:window-height="1016"
     inkscape:window-x="1920"
     inkscape:window-y="33"
     inkscape:window-maximized="1"
     inkscape:showpageshadow="false"
     inkscape:snap-page="false"
     fit-margin-top="0"
     fit-margin-left="0"
     fit-margin-right="0"
     fit-margin-bottom="0" />
  <metadata
     id="metadata7">
    <rdf:RDF>
      <cc:Work
         rdf:about="">
        <dc:format>image/svg+xml</dc:format>
        <dc:type
           rdf:resource="http://purl.org/dc/dcmitype/StillImage" />
        <dc:title />
      </cc:Work>
    </rdf:RDF>
  </metadata>
  <g
     style="display:inline"
     transform="translate(-3.4937368,-755.37274)"
     id="g3941"
     inkscape:groupmode="layer"
     inkscape:label="Copie de Calque 1">
    <g
       id="g2991"
       transform="matrix(0.32523294,0,0,0.32523294,2.3574585,509.70064)">
      <path
         transform="translate(0,752.36218)"
         inkscape:connector-curvature="0"
         id="path3770"
         d="m 240.09398,38.1221 c -7.48088,0.09515 -14.6345,3.874879 -19.94457,8.964482 -5.91615,6.211654 -6.05625,16.266521 -1.31084,23.186436 3.93732,6.374012 10.83194,11.957807 18.74598,10.950028 9.02995,0.345638 16.75477,-6.408654 20.87534,-13.938189 2.5387,-4.226684 3.72434,-9.741792 0.97256,-14.179668 -3.49651,-6.015197 -7.72955,-12.817055 -14.82804,-14.870328 -1.49497,-0.192281 -3.00732,-0.124398 -4.51043,-0.112761 z"
         style="fill:#7fae00;fill-opacity:1" />
      <path
         transform="translate(0,752.36218)"
         inkscape:connector-curvature="0"
         id="path3772"
         d="m 57.055038,37.135443 c -6.6325,1.091616 -12.412839,5.38063 -16.885927,10.233041 -7.667236,7.918069 -6.781413,22.159961 1.874648,29.007711 8.495933,7.178793 22.330091,7.339626 30.840074,0.112761 4.368092,-5.207799 7.328991,-12.036928 7.24488,-18.915621 C 79.22455,48.595734 71.010776,42.885925 63.736115,38.911425 61.686762,37.82207 59.415806,36.956999 57.055038,37.135443 z"
         style="fill:#7fae00;fill-opacity:1" />
      <path
         transform="translate(0,752.36218)"
         inkscape:connector-curvature="0"
         id="path3774"
         d="m 147.68652,65.367924 c -11.11011,0.760368 -19.93445,10.977633 -20.49428,21.875591 -1.22991,12.200151 10.67344,23.586625 22.81879,21.786615 7.35521,-0.66602 16.03305,-2.75998 19.53698,-10.045398 2.45652,-4.354679 1.57416,-9.629487 1.33904,-14.40519 -1.90871,-7.626935 -7.5899,-14.327882 -14.63071,-17.717538 -2.69288,-1.143674 -5.64294,-1.667456 -8.56982,-1.49408 z"
         style="fill:#7fae00;fill-opacity:1" />
      <path
         transform="translate(0,752.36218)"
         inkscape:connector-curvature="0"
         id="path3776"
         d="m 217.09078,132.16459 c -7.36531,0.0904 -16.43291,1.72648 -20.01504,9.03496 -4.55056,8.94817 -3.74142,21.72333 4.91837,27.93276 8.24859,5.44707 19.12667,4.31001 27.9514,0.94809 6.35831,-2.57786 10.0944,-9.7309 9.32689,-16.43486 0.51249,-7.19442 -4.19662,-13.78842 -9.84841,-17.77394 -3.61349,-2.35739 -7.97022,-3.93288 -12.33321,-3.70701 z"
         style="fill:#7fae00;fill-opacity:1" />
      <path
         transform="translate(0,752.36218)"
         inkscape:connector-curvature="0"
         id="path3778"
         d="m 80.692517,127.69645 c -10.824708,0.59049 -20.059449,9.54256 -22.749487,19.73313 -0.951785,6.21672 1.7968,12.51321 6.815634,16.24502 5.548264,4.25812 11.928727,9.53571 19.401247,8.50597 7.708718,-1.48388 12.873582,-8.49591 16.420789,-15.01128 4.51508,-9.68819 -0.0333,-22.20689 -9.542381,-26.99211 -3.148077,-1.71918 -6.734969,-2.64717 -10.345802,-2.48073 z"
         style="fill:#7fae00;fill-opacity:1" />
      <path
         transform="translate(0,752.36218)"
         inkscape:connector-curvature="0"
         id="path3780"
         d="m 59.817678,218.62392 c -8.927591,-0.0637 -16.371286,6.18052 -20.786751,13.48373 -3.197327,4.33015 -5.507301,10.63456 -1.962737,15.4676 4.411278,5.47113 9.301128,10.96127 15.518702,14.3911 4.682363,3.00798 10.685234,2.16082 15.180421,-0.74704 11.281932,-6.21095 15.264327,-21.5477 10.247136,-32.98253 -3.43912,-6.73408 -10.788686,-10.21856 -18.196771,-9.61286 z"
         style="fill:#7fae00;fill-opacity:1" />
      <path
         transform="translate(0,752.36218)"
         inkscape:connector-curvature="0"
         id="path3782"
         d="m 236.27421,219.42734 c -7.56457,-0.20497 -14.22316,5.60978 -17.29469,12.16407 -4.06424,8.87306 0.1464,19.52738 7.20168,25.55886 4.34485,4.06131 10.13507,8.15557 16.40761,6.38063 7.28792,-1.60827 13.30409,-7.21609 17.01278,-13.54539 4.71041,-8.78779 2.33393,-20.7509 -5.94813,-26.55516 -4.87758,-4.20835 -11.31007,-4.15556 -17.37925,-4.00301 z"
         style="fill:#7fae00;fill-opacity:1" />
      <path
         transform="translate(0,752.36218)"
         inkscape:connector-curvature="0"
         id="path3784"
         d="m 147.68652,197.53765 c -6.13379,0.0928 -13.67124,1.0747 -16.77317,7.17441 -3.257,6.15664 -6.05711,13.84611 -3.18549,20.66341 4.09195,7.43657 11.05843,13.86522 19.47942,15.80061 7.26255,0.80949 13.27309,-4.68247 18.08168,-9.39289 5.00586,-4.73976 6.93786,-12.18914 4.72419,-18.74093 -1.65645,-6.09828 -4.90345,-13.29274 -11.8107,-14.54904 -3.43496,-0.80288 -6.99179,-1.03278 -10.51593,-0.95557 z"
         style="fill:#7fae00;fill-opacity:1" />
      <path
         inkscape:connector-curvature="0"
         id="path3002"
         d="m 180.08136,755.40009 c -8.37301,0.11774 -17.87766,3.64094 -21.11445,12.00902 -1.53626,8.19744 0.19476,16.91726 4.66308,23.95899 8.28463,13.67277 20.00921,25.83821 23.2234,41.95452 1.77694,10.30442 1.45683,22.17879 -5.71489,30.46877 -8.2332,10.23445 -21.39644,16.11862 -34.53299,15.84289 -11.31653,-0.6449 -21.00166,-8.02702 -27.54053,-16.85821 -5.32983,-6.27297 -9.80029,-14.0262 -8.96578,-22.59397 1.10854,-13.37227 9.64531,-24.4562 15.67789,-36.00241 4.04611,-7.82861 9.4868,-15.24651 11.43272,-23.95165 1.49115,-9.18434 -3.51116,-19.16696 -11.78924,-23.39025 -5.45955,-2.03788 -11.51807,-1.24346 -17.18192,-0.64838 -6.5752,0.94243 -12.121829,6.61289 -12.282829,13.37366 -2.00858,16.66585 5.951979,32.53298 5.460799,49.1522 0.3978,4.02306 -2.956239,7.11251 -4.618189,10.51228 -6.53526,9.57185 -14.80522,18.68954 -25.77083,23.07633 -12.34704,4.1169 -25.4203,0.0748 -37.78896,-1.9874 -8.44338,-1.46139 -18.49473,-2.60817 -25.4698397,3.4392 -5.38844,5.11646 -4.31822,13.25865 -3.90434,19.98685 0.22507,10.39218 10.4817397,18.59986 20.5646897,18.05142 5.81048,0.83638 10.83631,-2.61817 15.21574,-5.92954 10.79223,-7.94098 20.19645,-18.69551 33.29964,-22.66501 15.51279,-4.36055 33.747859,2.28956 41.760899,16.55099 3.44907,5.70254 6.07143,12.2737 5.40129,19.1237 0.13391,6.58067 0.193,13.47685 -3.39864,19.23579 -6.50934,12.62822 -19.199429,23.24217 -33.798319,23.76835 -13.99678,-0.20013 -25.57119,-9.39689 -36.17266,-17.48511 -5.91725,-4.42309 -11.45816,-9.70314 -18.40355,-12.41059 -6.34792,-1.67357 -11.94777,3.17171 -16.57745,6.79434 -4.1279297,3.70453 -8.7109497,8.31537 -8.1453497,14.34831 -0.9242,9.48616 5.20125,19.59714 14.7998497,21.63597 11.10122,2.34765 22.16497,-1.92934 32.91636,-4.05416 6.82612,-1.68945 14.33577,-2.07314 20.68729,1.40428 13.17826,5.79089 25.34935,16.35581 28.669429,30.88236 3.5856,14.43693 -1.806089,28.92497 -5.412519,42.77867 -0.83446,4.1416 -2.32554,9.2521 1.24037,12.5869 4.958699,5.4593 10.649979,10.5446 17.492019,13.4044 6.48985,1.8424 12.23966,-3.121 17.11144,-6.5965 5.33411,-3.9749 9.85568,-10.3915 8.41478,-17.3792 -2.34385,-11.9097 -12.11473,-20.2144 -19.49352,-29.13461 -5.08191,-5.9885 -10.26367,-12.76601 -10.38809,-20.97351 -1.39641,-11.62679 0.54573,-23.89915 7.68183,-33.37719 7.70634,-11.73356 21.73785,-20.20687 36.13496,-18.01791 14.77891,1.99825 27.14749,13.60886 32.42359,27.13744 3.4769,9.40145 4.04671,20.0174 1.76189,29.75475 -3.23395,10.04161 -11.46541,17.40143 -18.1122,25.27263 -4.99392,5.9627 -10.50915,12.5632 -11.12103,20.6493 -0.26358,5.6308 2.3763,11.0488 6.92069,14.4051 4.69291,3.7483 9.95168,7.915 16.23755,8.0483 6.1324,-0.7189 11.00431,-4.9982 15.94156,-8.3725 4.41861,-3.0057 6.78022,-8.4269 5.65033,-13.7123 -1.48754,-15.8382 -7.32548,-31.48396 -5.26976,-47.50271 2.9567,-9.68368 10.65118,-17.02699 18.12629,-23.45424 8.49446,-7.13374 20.29779,-8.94117 31.02834,-6.93407 11.29058,1.26475 22.34995,5.14029 33.79502,4.60838 7.55221,-0.82147 12.62455,-8.19105 14.15147,-15.12404 1.08319,-7.95596 0.79085,-17.37853 -5.68032,-23.10187 -5.72482,-5.57251 -15.11363,-9.08659 -22.50987,-4.66548 -13.38066,7.71137 -23.13212,20.98114 -37.7484,26.55233 -8.11751,2.64571 -17.2711,2.39512 -25.41173,0.22836 -7.95258,-2.7082 -15.14497,-7.57251 -19.62038,-14.85623 -8.01715,-11.5864 -8.50229,-27.54928 -1.98741,-39.86094 5.49478,-10.87468 16.14816,-19.86955 28.55667,-21.36817 8.97656,-1.09965 18.14599,1.13458 25.67026,6.11483 9.77063,5.81111 17.30762,14.76418 27.00312,20.65176 5.29097,2.61127 11.79693,2.47901 17.29468,0.56381 7.4866,-3.39957 14.27501,-10.51351 14.33653,-19.16834 0.82536,-7.5431 -3.94127,-14.09758 -9.14953,-18.973 -3.7006,-4.12265 -9.32319,-6.26026 -14.83977,-5.28176 -11.04352,1.26378 -21.54679,6.26335 -32.85791,5.15791 -7.71181,-0.0496 -15.72297,-0.56604 -22.37007,-4.70175 -12.5871,-6.41704 -19.44422,-20.88476 -19.14012,-34.78162 -0.80382,-12.05165 4.5521,-23.18837 5.82127,-34.96994 1.09714,-8.44472 -2.72952,-18.02763 -11.00827,-21.31179 -3.52858,-1.53678 -7.44182,-2.04634 -11.27608,-1.88874 z"
         style="fill:#4d4d4d;fill-opacity:1" />
    </g>
  </g>
</svg>
