<?xml version="1.0" encoding="UTF-8" standalone="no"?>
<svg
   xmlns:osb="http://www.openswatchbook.org/uri/2009/osb"
   xmlns:dc="http://purl.org/dc/elements/1.1/"
   xmlns:cc="http://creativecommons.org/ns#"
   xmlns:rdf="http://www.w3.org/1999/02/22-rdf-syntax-ns#"
   xmlns:svg="http://www.w3.org/2000/svg"
   xmlns="http://www.w3.org/2000/svg"
   xmlns:sodipodi="http://sodipodi.sourceforge.net/DTD/sodipodi-0.dtd"
   xmlns:inkscape="http://www.inkscape.org/namespaces/inkscape"
   version="1.0"
   x="0px"
   y="0px"
   width="106.06475"
   height="96.984459"
   viewBox="0 0 106.06475 96.98446"
   overflow="visible"
   enable-background="new 0 0 100 91.613"
   xml:space="preserve"
   id="svg2"
   inkscape:version="0.48.3.1 r9886"
   sodipodi:docname="pie.svg"
   style="overflow:visible"><metadata
   id="metadata14"><rdf:RDF><cc:Work
       rdf:about=""><dc:format>image/svg+xml</dc:format><dc:type
         rdf:resource="http://purl.org/dc/dcmitype/StillImage" /></cc:Work></rdf:RDF></metadata><defs
   id="defs12"><linearGradient
     id="linearGradient3764"
     osb:paint="solid"><stop
       style="stop-color:#ff0000;stop-opacity:1;"
       offset="0"
       id="stop3766" /></linearGradient></defs><sodipodi:namedview
   pagecolor="#ffffff"
   bordercolor="#666666"
   borderopacity="1"
   objecttolerance="10"
   gridtolerance="10"
   guidetolerance="10"
   inkscape:pageopacity="0"
   inkscape:pageshadow="2"
   inkscape:window-width="1908"
   inkscape:window-height="1016"
   id="namedview10"
   showgrid="false"
   inkscape:zoom="5.1521073"
   inkscape:cx="14.988223"
   inkscape:cy="46.98894"
   inkscape:window-x="1920"
   inkscape:window-y="33"
   inkscape:window-maximized="1"
   inkscape:current-layer="svg2"
   fit-margin-top="0"
   fit-margin-left="0"
   fit-margin-right="0"
   fit-margin-bottom="0" />
    
    
    <path
   inkscape:connector-curvature="0"
   style="fill:#d5383b;fill-opacity:1;stroke:#4d4d4d;stroke-width:4;stroke-miterlimit:4;stroke-opacity:1;stroke-dasharray:none"
   d="M 101.31471,53.887691 H 66.65869 c -1.521,0 -2.751,1.229 -2.751,2.747 0,0.775 0.323,1.468 0.838,1.969 l 24.408,24.411 0.015,-0.003 c 0.499,0.536 1.207,0.876 1.999,0.876 0.949,0 1.786,-0.483 2.281,-1.217 5.998,-6.958 9.85706,-15.812 10.56206,-25.54 0.031,-0.163 0.054,-0.328 0.054,-0.496 -0.006,-1.518 -1.232,-2.747 -2.75004,-2.747 z"
   id="path4" /><path
   inkscape:connector-curvature="0"
   style="fill:#eaa228;fill-opacity:1;stroke:#4d4d4d;stroke-width:4;stroke-miterlimit:4;stroke-opacity:1;stroke-dasharray:none"
   d="m 56.28746,46.026001 h 38.518 l 0.003,-0.002 c 0,0 0.003,0.002 0.009,0.002 1.518,0 2.745,-1.233 2.745,-2.749 l 0,0 c -1.361,-22.174 -19.105,-39.9120015 -41.275,-41.2770018 l -0.01,0.008 c -1.51,0.006 -2.737,1.2330003 -2.737,2.7470003 V 43.276001 c 0,1.517 1.228,2.75 2.747,2.75 z"
   id="path6" /><path
   inkscape:connector-curvature="0"
   style="fill:#7fae00;fill-opacity:1;stroke:#4d4d4d;stroke-width:4;stroke-miterlimit:4;stroke-opacity:1;stroke-dasharray:none"
   d="m 75.305,80.078461 -0.01,-0.004 c -0.004,-0.007 -0.007,-0.013 -0.01,-0.016 l -28.4,-28.401 v -0.01 c -0.48,-0.493 -0.772,-1.164 -0.772,-1.907 h -0.008 v -40.1410005 -0.003 c -0.005,-1.512 -1.228,-2.733 -2.741,-2.735 l -0.003,-0.006 C 20.281,8.2724605 2,27.441461 2,50.878461 c 0,24.357 19.747,44.106 44.104,44.106 11.111,0 21.257,-4.106 29.013,-10.882 v -0.012 c 0.598,-0.503 0.977,-1.247 0.977,-2.085 0,-0.749 -0.3,-1.429 -0.789,-1.926 v -10e-4 z"
   id="path8" />
</svg>