<?xml version="1.0" encoding="UTF-8" standalone="no"?>
<!-- Generator: Adobe Illustrator 14.0.0, SVG Export Plug-In . SVG Version: 6.00 Build 43363)  -->

<svg
   xmlns:dc="http://purl.org/dc/elements/1.1/"
   xmlns:cc="http://creativecommons.org/ns#"
   xmlns:rdf="http://www.w3.org/1999/02/22-rdf-syntax-ns#"
   xmlns:svg="http://www.w3.org/2000/svg"
   xmlns="http://www.w3.org/2000/svg"
   xmlns:sodipodi="http://sodipodi.sourceforge.net/DTD/sodipodi-0.dtd"
   xmlns:inkscape="http://www.inkscape.org/namespaces/inkscape"
   version="1.0"
   id="Layer_1"
   x="0px"
   y="0px"
   width="91.849px"
   height="100px"
   viewBox="0 0 91.849 100"
   enable-background="new 0 0 91.849 100"
   xml:space="preserve"
   inkscape:version="0.48.3.1 r9886"
   sodipodi:docname="off.svg"><metadata
   id="metadata11"><rdf:RDF><cc:Work
       rdf:about=""><dc:format>image/svg+xml</dc:format><dc:type
         rdf:resource="http://purl.org/dc/dcmitype/StillImage" /><dc:title></dc:title></cc:Work></rdf:RDF></metadata><defs
   id="defs9" /><sodipodi:namedview
   pagecolor="#ffffff"
   bordercolor="#666666"
   borderopacity="1"
   objecttolerance="10"
   gridtolerance="10"
   guidetolerance="10"
   inkscape:pageopacity="0"
   inkscape:pageshadow="2"
   inkscape:window-width="1908"
   inkscape:window-height="1016"
   id="namedview7"
   showgrid="false"
   inkscape:zoom="4.72"
   inkscape:cx="19.783486"
   inkscape:cy="69.201946"
   inkscape:window-x="1920"
   inkscape:window-y="33"
   inkscape:window-maximized="1"
   inkscape:current-layer="Layer_1" />


<path
   style="fill:#d5383b;fill-opacity:1"
   d="m 24.696003,14.332227 c -2.885205,0.177409 -5.134685,2.240145 -7.335936,3.887262 C 9.4795573,24.666995 3.5584868,33.626027 1.3487003,43.626084 0.48571431,46.948719 0.26492643,50.382576 0.35783366,53.805015 0.23414607,57.302871 0.65486099,60.787648 1.5137762,64.175551 3.5801799,72.993096 8.265855,81.1679 14.918982,87.314134 c 7.68746,7.349141 18.086729,11.737928 28.691632,12.286626 4.131443,0.002 8.306342,-0.04852 12.331219,-1.073768 C 68.740878,95.694275 80.0176,86.954173 86.132292,75.382006 90.021497,68.145863 91.937202,59.863822 91.547198,51.644436 91.347672,41.947238 87.493284,32.515279 81.340933,25.077165 78.117284,21.196257 74.390841,17.620757 70.001431,15.106398 c -3.525345,-1.957681 -8.302325,0.0089 -9.830701,3.639395 -1.492642,3.063273 -0.452585,7.05859 2.363751,8.984098 4.421514,3.140406 8.324476,7.072874 10.849246,11.901855 2.635069,4.757703 3.687187,10.230528 3.373007,15.632009 -0.376139,10.670513 -6.964157,20.869436 -16.39789,25.851448 -8.911898,4.860936 -20.237207,4.796955 -29.0947,-0.128991 -8.504252,-4.683783 -14.752225,-13.457905 -15.941672,-23.129178 -1.249538,-8.383136 1.247304,-17.236559 6.852151,-23.628072 2.133426,-2.582138 4.746584,-4.738028 7.442783,-6.720672 2.772477,-2.125183 3.626871,-6.310428 1.828213,-9.316502 -1.328466,-2.407101 -3.988916,-3.967061 -6.749616,-3.859561 z"
   id="path2990"
   inkscape:connector-curvature="0" /><path
   style="fill:#d5383b;fill-opacity:1"
   d="m 67.626669,93.318128 c 2.885205,-0.17741 5.134685,-2.240147 7.335936,-3.887264 7.88051,-6.447507 13.80158,-15.406539 16.011367,-25.406596 0.862986,-3.322635 1.083774,-6.756492 0.990867,-10.178931 C 92.088526,50.347481 91.667811,46.862704 90.808896,43.474801 88.742492,34.657256 84.056817,26.482452 77.40369,20.336218 69.71623,12.987077 59.316961,8.5982888 48.712058,8.0495888 c -4.131444,-0.002 -8.306343,0.0485 -12.33122,1.07377 C 23.581793,11.956077 12.305071,20.696179 6.190379,32.268346 c -3.8892,7.236143 -5.80490998,15.518184 -5.41490998,23.73757 0.19953,9.697198 4.05391998,19.129157 10.20626898,26.567271 3.223649,3.880909 6.950092,7.456409 11.339502,9.970771 3.525345,1.95768 8.302325,-0.009 9.830701,-3.639398 1.492642,-3.063273 0.452585,-7.058591 -2.363751,-8.984099 -4.421514,-3.140406 -8.324476,-7.072874 -10.849246,-11.901855 -2.635069,-4.757703 -3.687187,-10.230528 -3.373007,-15.632009 0.376139,-10.670513 6.964157,-20.869436 16.39789,-25.851448 8.911898,-4.860936 20.237208,-4.796955 29.094701,0.128991 8.504252,4.683783 14.752225,13.457905 15.941672,23.129178 1.249538,8.383136 -1.247304,17.236559 -6.852151,23.628072 -2.133426,2.582138 -4.746584,4.738028 -7.442783,6.720672 -2.772477,2.125183 -3.626871,6.310429 -1.828213,9.316503 1.328466,2.407103 3.988916,3.967063 6.749616,3.859563 z"
   id="path2990-2"
   inkscape:connector-curvature="0" /></svg>