<?xml version="1.0" encoding="UTF-8" standalone="no"?>
<svg
   xmlns:dc="http://purl.org/dc/elements/1.1/"
   xmlns:cc="http://creativecommons.org/ns#"
   xmlns:rdf="http://www.w3.org/1999/02/22-rdf-syntax-ns#"
   xmlns:svg="http://www.w3.org/2000/svg"
   xmlns="http://www.w3.org/2000/svg"
   xmlns:sodipodi="http://sodipodi.sourceforge.net/DTD/sodipodi-0.dtd"
   xmlns:inkscape="http://www.inkscape.org/namespaces/inkscape"
   version="1.1"
   id="Layer_1"
   x="0px"
   y="0px"
   width="100px"
   height="100px"
   viewBox="0 0 100 100"
   enable-background="new 0 0 100 100"
   xml:space="preserve"
   inkscape:version="0.48.3.1 r9886"
   sodipodi:docname="server.svg"><metadata
   id="metadata19"><rdf:RDF><cc:Work
       rdf:about=""><dc:format>image/svg+xml</dc:format><dc:type
         rdf:resource="http://purl.org/dc/dcmitype/StillImage" /></cc:Work></rdf:RDF></metadata><defs
   id="defs17" /><sodipodi:namedview
   pagecolor="#ffffff"
   bordercolor="#666666"
   borderopacity="1"
   objecttolerance="10"
   gridtolerance="10"
   guidetolerance="10"
   inkscape:pageopacity="0"
   inkscape:pageshadow="2"
   inkscape:window-width="1908"
   inkscape:window-height="1016"
   id="namedview15"
   showgrid="false"
   inkscape:zoom="6.675088"
   inkscape:cx="44.075681"
   inkscape:cy="44.004818"
   inkscape:window-x="0"
   inkscape:window-y="33"
   inkscape:window-maximized="1"
   inkscape:current-layer="Layer_1" />

<g
   id="g2996"
   style="fill:#4d4d4d;fill-opacity:1"><path
     id="path3"
     d="M70,92.5h-5l-6.759-6.76l-0.019-0.018C57.771,85.277,57.152,85,56.467,85H52.5h-8.971c-0.675,0-1.285,0.271-1.734,0.705  l-0.059,0.059L35,92.5h-5c-1.381,0-2.5,0.988-2.5,2.206v3.088c0,1.218,1.119,2.206,2.5,2.206h40c1.381,0,2.5-0.988,2.5-2.206v-3.088  C72.5,93.488,71.381,92.5,70,92.5z"
     style="fill:#4d4d4d;fill-opacity:1" /><g
     id="g5"
     style="fill:#4d4d4d;fill-opacity:1">
	<path
   id="path7"
   d="M84.889,66.999c-1.688,0-3.055,1.366-3.055,3.056C81.834,68.367,83.201,67,84.889,66.999   c1.688,0.001,3.055,1.368,3.055,3.056C87.943,68.365,86.577,66.999,84.889,66.999z"
   fill="none"
   style="fill:#4d4d4d;fill-opacity:1" />
	<path
   id="path9"
   d="M81.834,70.055c0,1.688,1.367,3.055,3.055,3.055C83.201,73.109,81.834,71.742,81.834,70.055z"
   fill="none"
   style="fill:#4d4d4d;fill-opacity:1" />
	<path
   id="path11"
   d="M84.889,73.109c1.688,0,3.055-1.366,3.055-3.055C87.943,71.742,86.576,73.109,84.889,73.109z"
   fill="none"
   style="fill:#4d4d4d;fill-opacity:1" />
	<path
   id="path13"
   d="M90,0H10C4.477,0,0,4.477,0,10v60c0,5.521,4.477,10,10,10h80c5.523,0,10-4.479,10-10V10C100,4.477,95.523,0,90,0z    M84.889,73.109c-1.688,0-3.055-1.366-3.055-3.055c0-1.689,1.367-3.056,3.055-3.056c1.688,0,3.055,1.366,3.055,3.056   C87.943,71.743,86.577,73.109,84.889,73.109z M90,60H10V10h80V60z"
   style="fill:#4d4d4d;fill-opacity:1" />
</g></g>
</svg>