<?xml version="1.0" encoding="UTF-8" standalone="no"?>
<!-- Generator: Adobe Illustrator 14.0.0, SVG Export Plug-In . SVG Version: 6.00 Build 43363)  -->

<svg
   xmlns:dc="http://purl.org/dc/elements/1.1/"
   xmlns:cc="http://creativecommons.org/ns#"
   xmlns:rdf="http://www.w3.org/1999/02/22-rdf-syntax-ns#"
   xmlns:svg="http://www.w3.org/2000/svg"
   xmlns="http://www.w3.org/2000/svg"
   xmlns:sodipodi="http://sodipodi.sourceforge.net/DTD/sodipodi-0.dtd"
   xmlns:inkscape="http://www.inkscape.org/namespaces/inkscape"
   version="1.0"
   id="Layer_1"
   x="0px"
   y="0px"
   width="91.849px"
   height="100px"
   viewBox="0 0 91.849 100"
   enable-background="new 0 0 91.849 100"
   xml:space="preserve"
   inkscape:version="0.48.3.1 r9886"
   sodipodi:docname="on.svg"><metadata
   id="metadata11"><rdf:RDF><cc:Work
       rdf:about=""><dc:format>image/svg+xml</dc:format><dc:type
         rdf:resource="http://purl.org/dc/dcmitype/StillImage" /><dc:title></dc:title></cc:Work></rdf:RDF></metadata><defs
   id="defs9" /><sodipodi:namedview
   pagecolor="#ffffff"
   bordercolor="#666666"
   borderopacity="1"
   objecttolerance="10"
   gridtolerance="10"
   guidetolerance="10"
   inkscape:pageopacity="0"
   inkscape:pageshadow="2"
   inkscape:window-width="1908"
   inkscape:window-height="1016"
   id="namedview7"
   showgrid="false"
   inkscape:zoom="6.675088"
   inkscape:cx="41.432194"
   inkscape:cy="52.151448"
   inkscape:window-x="1920"
   inkscape:window-y="33"
   inkscape:window-maximized="1"
   inkscape:current-layer="Layer_1" />


<path
   style="fill:#7fae00;fill-opacity:1"
   d="m 24.933901,11.439105 c -3.51085,0.167584 -6.182814,2.861518 -8.762593,4.941312 C 7.4845928,23.946723 1.4437203,34.68781 0.4473033,46.250038 c -1.457882,13.797257 3.789692,28.052416 13.7343027,37.694586 9.753121,9.615292 24.02865,14.637589 37.665976,12.629986 5.912779,-0.646695 11.578544,-2.695013 16.722831,-5.646801 12.746399,-7.096429 21.490549,-20.766286 22.985553,-35.227724 0.431529,-6.190576 0.25878,-12.524334 -1.796558,-18.446891 -2.392427,-7.447476 -6.793902,-14.213967 -12.55281,-19.491056 -2.540424,-2.333493 -5.081499,-4.981613 -8.453141,-6.039731 -2.55286,-0.553191 -5.412926,0.0042 -7.247257,1.983113 -2.151263,1.886672 -2.678383,5.049468 -2.016056,7.708448 1.125766,3.659593 5.02417,5.21086 7.444379,7.835811 5.810329,5.536749 9.69151,13.45634 9.270432,21.594644 C 76.657608,61.238822 70.588458,71.298893 61.9608,76.80937 51.826456,83.309591 37.707915,82.861442 28.129283,75.43898 21.576029,70.499632 16.790085,62.898441 15.942056,54.659923 c -0.281535,-4.832527 -0.252227,-9.867974 1.678703,-14.389909 2.294537,-6.271713 7.10312,-11.111446 12.300573,-15.133592 3.169684,-2.276967 3.842232,-7.160331 1.574632,-10.291106 -1.355163,-2.176322 -4.027972,-3.483038 -6.562063,-3.406211 z"
   id="path3762"
   inkscape:connector-curvature="0" /><path
   style="fill:#7fae00;fill-opacity:1"
   d="m 66.88581,90.500877 c 3.51085,-0.167584 6.182814,-2.861518 8.762593,-4.941312 C 84.335119,77.993258 90.375991,67.252171 91.372408,55.689943 92.83029,41.892686 87.582716,27.637527 77.638105,17.995357 67.884984,8.3800665 53.609455,3.3577655 39.972128,5.3653725 34.059349,6.0120675 28.393584,8.0603855 23.249297,11.012172 10.502898,18.108601 1.7587471,31.778458 0.26374288,46.239896 c -0.431529,6.190576 -0.25878,12.524334 1.79655822,18.446891 2.392427,7.447476 6.7939019,14.213967 12.5528109,19.491057 2.540424,2.333493 5.081499,4.981613 8.453141,6.039731 2.55286,0.553191 5.412926,-0.0042 7.247257,-1.983113 2.151263,-1.886672 2.678383,-5.049468 2.016056,-7.708448 -1.125766,-3.659594 -5.02417,-5.210861 -7.444379,-7.835812 -5.810329,-5.536749 -9.69151,-13.45634 -9.270432,-21.594644 -0.452653,-10.394399 5.616497,-20.45447 14.244155,-25.964947 10.134344,-6.500221 24.252886,-6.052072 33.831518,1.37039 6.553254,4.939348 11.339198,12.540539 12.187227,20.779057 0.281535,4.832527 0.252227,9.867974 -1.678703,14.389909 -2.294537,6.271713 -7.10312,11.111446 -12.300573,15.133592 -3.169684,2.276967 -3.842232,7.160332 -1.574632,10.291107 1.355163,2.176322 4.027972,3.483038 6.562063,3.406211 z"
   id="path3762-0"
   inkscape:connector-curvature="0" /></svg>