<svg xmlns="http://www.w3.org/2000/svg" xmlns:xlink="http://www.w3.org/1999/xlink" version="1.1" id="Layer_1" x="0px" y="0px" width="100px" height="100px" viewBox="0 0 100 100" enable-background="new 0 0 100 100" xml:space="preserve">
<g>
	<g>
		<path fill="#4D4D4D" d="M19.3,48.049c-6.816,0-12.362-5.546-12.362-12.362c0-6.817,5.546-12.363,12.362-12.363    s12.362,5.546,12.362,12.363C31.662,42.503,26.116,48.049,19.3,48.049z M19.3,28.324c-4.06,0-7.362,3.303-7.362,7.363    c0,4.06,3.303,7.362,7.362,7.362s7.362-3.303,7.362-7.362C26.662,31.626,23.359,28.324,19.3,28.324z"/>
	</g>
	<g>
		<path fill="#4D4D4D" d="M50,48.049c-6.816,0-12.362-5.546-12.362-12.362c0-6.817,5.546-12.363,12.362-12.363    s12.362,5.546,12.362,12.363C62.362,42.503,56.816,48.049,50,48.049z M50,28.324c-4.06,0-7.362,3.303-7.362,7.363    c0,4.06,3.303,7.362,7.362,7.362s7.362-3.303,7.362-7.362C57.362,31.626,54.06,28.324,50,28.324z"/>
	</g>
	<g>
		<path fill="#4D4D4D" d="M50,78.676c-6.816,0-12.362-5.545-12.362-12.363c0-6.816,5.546-12.361,12.362-12.361    s12.362,5.545,12.362,12.361C62.362,73.131,56.816,78.676,50,78.676z M50,58.951c-4.06,0-7.362,3.303-7.362,7.361    c0,4.061,3.303,7.363,7.362,7.363s7.362-3.303,7.362-7.363C57.362,62.254,54.06,58.951,50,58.951z"/>
	</g>
	<g>
		<path fill="#4D4D4D" d="M80.7,48.049c-6.816,0-12.362-5.546-12.362-12.362c0-6.817,5.546-12.363,12.362-12.363    s12.362,5.546,12.362,12.363C93.063,42.503,87.517,48.049,80.7,48.049z M80.7,28.324c-4.06,0-7.362,3.303-7.362,7.363    c0,4.06,3.303,7.362,7.362,7.362s7.362-3.303,7.362-7.362C88.063,31.626,84.76,28.324,80.7,28.324z"/>
	</g>
	<path fill="#4D4D4D" d="M78.2,45.807v8.645c0,5.238-4.262,9.5-9.5,9.5h-9.283v5H68.7c7.995,0,14.5-6.506,14.5-14.5v-8.645H78.2z"/>
	<path fill="#4D4D4D" d="M41.543,63.951H31.171c-5.238,0-9.5-4.262-9.5-9.5v-8.645h-5v8.645c0,7.994,6.505,14.5,14.5,14.5h10.372   V63.951z"/>
	<rect x="47.5" y="44.512" fill="#4D4D4D" width="5" height="11.658"/>
</g>
</svg>