<?xml version="1.0" encoding="UTF-8" standalone="no"?>
<svg
   xmlns:dc="http://purl.org/dc/elements/1.1/"
   xmlns:cc="http://creativecommons.org/ns#"
   xmlns:rdf="http://www.w3.org/1999/02/22-rdf-syntax-ns#"
   xmlns:svg="http://www.w3.org/2000/svg"
   xmlns="http://www.w3.org/2000/svg"
   xmlns:sodipodi="http://sodipodi.sourceforge.net/DTD/sodipodi-0.dtd"
   xmlns:inkscape="http://www.inkscape.org/namespaces/inkscape"
   version="1.0"
   id="Ebene_1"
   x="0px"
   y="0px"
   width="100px"
   height="99.999px"
   viewBox="0 0 100 99.999"
   enable-background="new 0 0 100 99.999"
   xml:space="preserve"
   inkscape:version="0.48.3.1 r9886"
   sodipodi:docname="text.svg"><metadata
   id="metadata21"><rdf:RDF><cc:Work
       rdf:about=""><dc:format>image/svg+xml</dc:format><dc:type
         rdf:resource="http://purl.org/dc/dcmitype/StillImage" /></cc:Work></rdf:RDF></metadata><defs
   id="defs19">
	
	
	
	
	
	
</defs><sodipodi:namedview
   pagecolor="#ffffff"
   bordercolor="#666666"
   borderopacity="1"
   objecttolerance="10"
   gridtolerance="10"
   guidetolerance="10"
   inkscape:pageopacity="0"
   inkscape:pageshadow="2"
   inkscape:window-width="1908"
   inkscape:window-height="1016"
   id="namedview17"
   showgrid="false"
   inkscape:zoom="4.7200472"
   inkscape:cx="137.7488"
   inkscape:cy="82.845263"
   inkscape:window-x="0"
   inkscape:window-y="33"
   inkscape:window-maximized="1"
   inkscape:current-layer="Ebene_1" />
<path
   id="path5"
   d="m 78.556,1.759 -53.617,0 c -6.337,0 -11.472,5.136 -11.472,11.472 l 0,1.359 c -4.68,0 -8.474,3.793 -8.474,8.474 0,3.605 2.255,6.676 5.431,7.901 -3.175,1.224 -5.431,4.295 -5.431,7.9 0,3.604 2.254,6.674 5.425,7.899 -3.171,1.225 -5.425,4.295 -5.425,7.899 0,3.684 2.355,6.809 5.637,7.977 -3.281,1.168 -5.637,4.293 -5.637,7.977 0,4.68 3.794,8.474 8.474,8.474 l 0,5.628 c 0,6.336 5.135,11.472 11.472,11.472 l 53.616,0 c 6.335,0 11.472,-5.136 11.472,-11.472 l 0,-71.488 C 90.027,6.895 84.891,1.759 78.556,1.759 z m -65.088,17.484 0,7.641 c -2.105,0 -3.82,-1.714 -3.82,-3.82 -10e-4,-2.107 1.714,-3.821 3.82,-3.821 z m 0,15.802 0,7.641 c -2.105,0 -3.82,-1.714 -3.82,-3.821 0,-2.107 1.714,-3.82 3.82,-3.82 z m 0,15.798 0,7.641 c -2.105,0 -3.82,-1.714 -3.82,-3.82 0,-2.106 1.714,-3.821 3.82,-3.821 z M 9.647,70.617 c 0,-2.106 1.715,-3.82 3.82,-3.82 l 0,7.641 c -2.105,0 -3.82,-1.714 -3.82,-3.821 z M 78.556,93.055038 24.939,92.980133 C 19.243337,92.972176 16.532208,88.68041 16.528057,84.719 l -0.0749,-71.488 C 16.447725,8.0512971 21.110344,4.9752155 24.939,4.9698666 L 78.555,4.894962 c 4.203283,-0.00587 8.397945,3.1605731 8.410943,8.336038 l 0.179544,71.488 c 0.03066,4.332923 -4.378147,8.267968 -8.589487,8.336038 z"
   style="fill:#4d4d4d;fill-opacity:1"
   inkscape:connector-curvature="0"
   sodipodi:nodetypes="ssscscscscscssssssccccccscccscsccscsssssscc" /><rect
   id="rect7"
   height="4.6529999"
   width="41.370998"
   y="19.986"
   x="31.062"
   style="fill:#4d4d4d;fill-opacity:1" /><rect
   id="rect9"
   height="4.6529999"
   width="47.662987"
   y="32.126999"
   x="24.770012"
   style="fill:#4d4d4d;fill-opacity:1" /><rect
   id="rect11"
   height="4.6529999"
   width="41.370998"
   y="44.269001"
   x="31.062"
   style="fill:#4d4d4d;fill-opacity:1" /><rect
   id="rect13"
   height="4.6529999"
   width="47.51318"
   y="56.41"
   x="24.919821"
   style="fill:#4d4d4d;fill-opacity:1" /><rect
   id="rect15"
   height="4.6529999"
   width="41.370998"
   y="68.551003"
   x="31.062"
   style="fill:#4d4d4d;fill-opacity:1" />
<rect
   style="fill:#7fae00;fill-opacity:1;stroke:none"
   id="rect2996"
   width="47.036983"
   height="4.757545"
   x="31.063484"
   y="19.947889" /><rect
   style="fill:#eaa228;fill-opacity:1;stroke:none"
   id="rect2996-05"
   width="47.036983"
   height="4.8014255"
   x="31.075247"
   y="44.159321" /><rect
   style="fill:#d5383b;fill-opacity:1;stroke:none"
   id="rect2996-05-39"
   width="47.336605"
   height="4.8014216"
   x="31.075245"
   y="68.500305" /></svg>